<svg id="check-mark" xmlns="http://www.w3.org/2000/svg" width="16.035" height="14.165" viewBox="0 0 16.035 14.165">
  <path id="Path_17" data-name="Path 17" d="M15.335,20.675c-.724-.39-1.531.362-2,.807-1.085,1.058-2,2.282-3.033,3.4C9.157,26.1,8.1,27.326,6.931,28.523a10.041,10.041,0,0,0-1.837,2.226,36.531,36.531,0,0,0-2.978-2.894C1.309,27.243-.027,26.8,0,28.272c.056,1.92,1.753,3.98,3.006,5.288a3.179,3.179,0,0,0,2.032,1.169c.974.056,1.976-1.113,2.56-1.753,1.03-1.113,1.865-2.366,2.811-3.507,1.225-1.5,2.477-2.978,3.674-4.509C14.835,24.014,17.2,21.676,15.335,20.675ZM1.225,28.161a.211.211,0,0,0-.111.028,1.355,1.355,0,0,1-.306-.111h0Q.933,27.994,1.225,28.161Z" transform="translate(-0.001 -20.566)" fill="#06d6a0"/>
</svg>
