<svg xmlns="http://www.w3.org/2000/svg" width="22.435" height="21.5" viewBox="0 0 22.435 21.5">
  <defs>
    <style>
      .cls-1 {
        fill: #212121;
      }
    </style>
  </defs>
  <g id="presentation_1_" data-name="presentation (1)" transform="translate(0 -1)">
    <path id="Path_80" data-name="Path 80" class="cls-1" d="M11.967,23.543a.468.468,0,0,1-.467-.467V17.467a.467.467,0,0,1,.935,0v5.609A.468.468,0,0,1,11.967,23.543Z" transform="translate(-0.75 -1.043)"/>
    <path id="Path_81" data-name="Path 81" class="cls-1" d="M16.174,23.739a.467.467,0,0,1-.259-.079l-4.207-2.8a.467.467,0,1,1,.518-.778l4.207,2.8a.467.467,0,0,1-.259.856Z" transform="translate(-0.75 -1.239)"/>
    <path id="Path_82" data-name="Path 82" class="cls-1" d="M7.467,23.739a.467.467,0,0,1-.26-.856l4.207-2.8a.467.467,0,0,1,.518.778l-4.207,2.8A.457.457,0,0,1,7.467,23.739Z" transform="translate(-0.456 -1.239)"/>
    <path id="Path_83" data-name="Path 83" class="cls-1" d="M20.565,4.739H1.87A1.87,1.87,0,0,1,1.87,1h18.7a1.87,1.87,0,0,1,0,3.739Zm-18.7-2.8a.935.935,0,1,0,0,1.87h18.7a.935.935,0,0,0,0-1.87Z"/>
    <path id="Path_84" data-name="Path 84" class="cls-1" d="M19.293,17.087H3.4a1.4,1.4,0,0,1-1.4-1.4V4.467A.468.468,0,0,1,2.467,4H20.228a.468.468,0,0,1,.467.467V15.685A1.4,1.4,0,0,1,19.293,17.087ZM2.935,4.935v10.75a.468.468,0,0,0,.467.467H19.293a.468.468,0,0,0,.467-.467V4.935Z" transform="translate(-0.13 -0.196)"/>
    <path id="Path_85" data-name="Path 85" class="cls-1" d="M6.467,14.478a.467.467,0,0,1-.331-.8L9.876,9.942a.467.467,0,0,1,.59-.059l2.448,1.632,3.471-4.339a.468.468,0,1,1,.73.584l-3.739,4.674a.467.467,0,0,1-.624.1l-2.486-1.656L6.8,14.343a.469.469,0,0,1-.33.136Z" transform="translate(-0.391 -0.391)"/>
  </g>
</svg>
