<svg xmlns="http://www.w3.org/2000/svg" width="52.5" height="52.498" viewBox="0 0 52.5 52.498">
    <g id="XMLID_1441_" transform="translate(0 -0.011)">
        <g id="XMLID_561_" transform="translate(0 0.011)">
        <path id="XMLID_592_" class="cls-1"
            d="M49.424,28.309H48.4V21.131a5.956,5.956,0,0,0-4.639-5.8L39.093,7.247A5.123,5.123,0,0,0,33.186,4.9L29.792,1.508a5.127,5.127,0,0,0-7.243,0L8.874,15.184H5.947A5.954,5.954,0,0,0,0,21.131v25.43a5.954,5.954,0,0,0,5.947,5.947H19.585a1.025,1.025,0,0,0,0-2.051H5.947a3.9,3.9,0,0,1-3.9-3.9V21.131a3.9,3.9,0,0,1,3.9-3.9h36.5a3.9,3.9,0,0,1,3.9,3.9v7.178H38.76a5.537,5.537,0,0,0,0,11.074h7.588v7.178a3.9,3.9,0,0,1-3.9,3.9H28.813a1.025,1.025,0,1,0,0,2.051H42.451A5.954,5.954,0,0,0,48.4,46.561V39.383h1.025A3.08,3.08,0,0,0,52.5,36.307V31.385A3.08,3.08,0,0,0,49.424,28.309ZM35.452,6.842a3.05,3.05,0,0,1,1.864,1.431l3.99,6.911H19.2L33.122,7.149a3.05,3.05,0,0,1,2.33-.307ZM24,2.958a3.071,3.071,0,0,1,4.342,0l2.905,2.905L15.1,15.184H11.774Zm26.45,33.349a1.027,1.027,0,0,1-1.025,1.025H38.76a3.486,3.486,0,1,1,0-6.973H49.424a1.027,1.027,0,0,1,1.025,1.025Z"
            transform="translate(0 -0.011)" fill="#fff" />
        <path id="XMLID_1063_" class="cls-1"
            d="M367.355,319.988a1.026,1.026,0,1,0,.725.3A1.033,1.033,0,0,0,367.355,319.988Z"
            transform="translate(-328.767 -287.178)" fill="#fff" />
        <path id="XMLID_1068_" class="cls-1"
            d="M227.025,491.988a1.026,1.026,0,1,0,.725.3A1.033,1.033,0,0,0,227.025,491.988Z"
            transform="translate(-202.826 -441.541)" fill="#fff" />
        </g>
    </g>
</svg>