<svg xmlns="http://www.w3.org/2000/svg" width="28.038" height="21.567" viewBox="0 0 28.038 21.567">
  <g id="Group_19995" data-name="Group 19995" transform="translate(-1317.571 -2987.191)">
    <line id="Line_46" data-name="Line 46" x2="24.756" transform="translate(1318.321 2987.941)" fill="none" stroke="#131923" stroke-linecap="round" stroke-width="1.5"/>
    <line id="Line_47" data-name="Line 47" x2="24.756" transform="translate(1318.321 2994.13)" fill="none" stroke="#131923" stroke-linecap="round" stroke-width="1.5"/>
    <line id="Line_48" data-name="Line 48" x2="14.066" transform="translate(1318.321 3000.319)" fill="none" stroke="#131923" stroke-linecap="round" stroke-width="1.5"/>
    <line id="Line_49" data-name="Line 49" x2="14.066" transform="translate(1318.321 3006.508)" fill="none" stroke="#131923" stroke-linecap="round" stroke-width="1.5"/>
    <g id="Polygon_3" data-name="Polygon 3" transform="translate(1345.609 2998.068) rotate(90)" fill="none">
      <path d="M4.123,2.187a1.4,1.4,0,0,1,2.444,0L9.526,7.482A1.4,1.4,0,0,1,8.3,9.565H2.386A1.4,1.4,0,0,1,1.164,7.482Z" stroke="none"/>
      <path d="M 5.345030784606934 2.869901657104492 L 2.386120796203613 8.164791107177734 L 8.303940773010254 8.164791107177734 L 5.345030784606934 2.869901657104492 M 5.345030784606934 1.46989917755127 C 5.82252311706543 1.46989917755127 6.300015926361084 1.708916664123535 6.567150592803955 2.186951637268066 L 9.526061058044434 7.481841564178467 C 10.04755115509033 8.415040969848633 9.372961044311523 9.564791679382324 8.303940773010254 9.564791679382324 L 2.386120796203613 9.564791679382324 C 1.317100524902344 9.564791679382324 0.6425104141235352 8.415040969848633 1.164000511169434 7.481841564178467 L 4.122910976409912 2.186951637268066 C 4.390045642852783 1.708916664123535 4.867538452148438 1.46989917755127 5.345030784606934 1.46989917755127 Z" stroke="none" fill="#131923"/>
    </g>
  </g>
</svg>
