<svg xmlns="http://www.w3.org/2000/svg" width="12.686" height="11.207" viewBox="0 0 12.686 11.207">
  <path id="Path_17" data-name="Path 17" d="M12.133,20.652c-.572-.308-1.211.286-1.585.639-.859.837-1.585,1.806-2.4,2.686-.9.969-1.739,1.938-2.664,2.884A7.944,7.944,0,0,0,4.03,28.623a28.9,28.9,0,0,0-2.356-2.29c-.639-.484-1.7-.837-1.673.33.044,1.519,1.387,3.149,2.378,4.183a2.515,2.515,0,0,0,1.607.925c.771.044,1.563-.881,2.026-1.387.815-.881,1.475-1.872,2.224-2.774.969-1.189,1.96-2.356,2.906-3.567C11.737,23.294,13.608,21.445,12.133,20.652ZM.97,26.575a.167.167,0,0,0-.088.022,1.072,1.072,0,0,1-.242-.088h0Q.738,26.443.97,26.575Z" transform="translate(-0.001 -20.566)" fill="#e13535"/>
</svg>
