<svg id="coin" xmlns="http://www.w3.org/2000/svg" width="21.044" height="21.044" viewBox="0 0 21.044 21.044">
  <defs>
    <style>
      .cls-1 {
        fill: #212121;
      }
    </style>
  </defs>
  <path id="Path_78" data-name="Path 78" class="cls-1" d="M10.522,0A10.522,10.522,0,1,0,21.044,10.522,10.534,10.534,0,0,0,10.522,0Zm0,19.659a9.137,9.137,0,1,1,9.137-9.137A9.147,9.147,0,0,1,10.522,19.659Z"/>
  <path id="Path_79" data-name="Path 79" class="cls-1" d="M76.281,34.866V30.935a1.992,1.992,0,0,1,.971.773.692.692,0,1,0,1.156-.762A3.37,3.37,0,0,0,76.281,29.5V28.4a.692.692,0,0,0-1.385,0v1.1a3.378,3.378,0,0,0,0,6.613V40.04a1.992,1.992,0,0,1-.971-.773.692.692,0,1,0-1.156.762A3.37,3.37,0,0,0,74.9,41.477v1.1a.692.692,0,0,0,1.385,0v-1.1a3.378,3.378,0,0,0,0-6.613ZM73.594,32.8a1.994,1.994,0,0,1,1.3-1.867v3.734A1.994,1.994,0,0,1,73.594,32.8Zm2.687,7.237V36.306a1.989,1.989,0,0,1,0,3.734Z" transform="translate(-65.067 -24.966)"/>
</svg>
