<svg
    xmlns="http://www.w3.org/2000/svg"
    width="30.457"
    height="37.5"
    viewBox="0 0 30.457 37.5"
>
    <path
    data-name="Path 739"
    d="M223.276,154.7a.878.878,0,0,0-.878.878v16.6a.878.878,0,0,0,1.756,0v-16.6A.878.878,0,0,0,223.276,154.7Zm0,0"
    transform="translate(-202.867 -141.117)"
    fill="#e13535"
    />
    <path
    data-name="Path 740"
    d="M105.276,154.7a.878.878,0,0,0-.878.878v16.6a.878.878,0,0,0,1.756,0v-16.6A.878.878,0,0,0,105.276,154.7Zm0,0"
    transform="translate(-95.229 -141.117)"
    fill="#e13535"
    />
    <path
    data-name="Path 741"
    d="M2.491,11.162V32.8a4.845,4.845,0,0,0,1.288,3.342A4.325,4.325,0,0,0,6.917,37.5H23.533a4.324,4.324,0,0,0,3.138-1.357A4.845,4.845,0,0,0,27.959,32.8V11.162a3.355,3.355,0,0,0-.861-6.6H22.6v-1.1A3.45,3.45,0,0,0,19.124,0h-7.8A3.45,3.45,0,0,0,7.848,3.468v1.1h-4.5a3.355,3.355,0,0,0-.861,6.6ZM23.533,35.742H6.917A2.781,2.781,0,0,1,4.247,32.8V11.24H26.2V32.8a2.781,2.781,0,0,1-2.67,2.942ZM9.6,3.468a1.692,1.692,0,0,1,1.721-1.713h7.8a1.692,1.692,0,0,1,1.721,1.713v1.1H9.6ZM3.352,6.322H27.1a1.581,1.581,0,0,1,0,3.162H3.352a1.581,1.581,0,1,1,0-3.162Zm0,0"
    transform="translate(0.003 0.002)"
    fill="#e13535"
    />
    <path
    data-name="Path 742"
    d="M164.276,154.7a.878.878,0,0,0-.878.878v16.6a.878.878,0,0,0,1.756,0v-16.6A.878.878,0,0,0,164.276,154.7Zm0,0"
    transform="translate(-149.048 -141.117)"
    fill="#e13535"
    />
</svg>