<svg xmlns="http://www.w3.org/2000/svg" width="24" height="23.692" viewBox="0 0 24 23.692">
  <defs>
    <style>
      .cls-1 {
        fill: #212121;
      }
    </style>
  </defs>
  <path id="Path_77" data-name="Path 77" class="cls-1" d="M7.2,22.472a4.11,4.11,0,0,0,1.237-2.944c0-.832,1.37-2.507,2.771-3.08.405-.166.957-.295,1.288.032l.384.379,0,0a2.845,2.845,0,0,0,3.978,0l6.932-6.843a.688.688,0,0,0,0-.982L14.845.2a.71.71,0,0,0-.994,0L6.918,7.047a2.757,2.757,0,0,0,0,3.927l.388.383a.7.7,0,0,1,.206.535c0,1.362-2.188,3.471-3.294,3.471A4.2,4.2,0,0,0,0,19.528H0a4.11,4.11,0,0,0,1.237,2.944,4.252,4.252,0,0,0,5.964,0Zm7.147-20.8L22.3,9.529l-2.983,2.945L11.364,4.621ZM2.231,21.49a2.74,2.74,0,0,1-.825-1.962,2.8,2.8,0,0,1,2.813-2.776,4.791,4.791,0,0,0,3.073-1.643,5.2,5.2,0,0,0,1.627-3.216A2.082,2.082,0,0,0,8.3,10.375l-.388-.383a1.382,1.382,0,0,1,0-1.963L10.37,5.6l7.955,7.853-2.457,2.426a1.425,1.425,0,0,1-1.989,0l-.388-.383a2.479,2.479,0,0,0-2.821-.333c-1.683.688-3.639,2.744-3.639,4.363a2.739,2.739,0,0,1-.825,1.962,2.833,2.833,0,0,1-3.975,0Z" transform="translate(0 0)"/>
</svg>
