<svg xmlns="http://www.w3.org/2000/svg" width="38.593" height="44.034" viewBox="0 0 38.593 44.034">
  <path id="Path_715" data-name="Path 715" d="M70,26.866l-4.362-7.477a.681.681,0,0,1,0-.685L70,11.226a.678.678,0,0,0,.083-.457,1.751,1.751,0,0,0-1.741-1.927H57.848v-3.4A2.043,2.043,0,0,0,55.807,3.4H37.442v-.68a2.721,2.721,0,1,0-5.442,0V42.853a.68.68,0,1,0,1.36,0V2.721a1.36,1.36,0,0,1,2.721,0V42.853a.68.68,0,1,0,1.36,0V23.807H48.325v3.4a2.043,2.043,0,0,0,2.041,2.041H68.341a1.751,1.751,0,0,0,1.741-1.927A.676.676,0,0,0,70,26.866ZM37.442,4.761H55.807a.681.681,0,0,1,.68.68V22.447H37.442ZM49.686,23.807H55.01c-5.5,3.85-5.124,3.554-5.233,3.741C49.648,27.326,49.686,27.457,49.686,23.807Zm18.655,4.081H51.552l6.006-4.2a.683.683,0,0,0,.278-.431c.019-.1.012.744.012-13.05H68.341a.391.391,0,0,1,.337.588l-4.216,7.227a2.044,2.044,0,0,0,0,2.056c4.562,7.82,4.269,7.263,4.269,7.424a.391.391,0,0,1-.391.391Z" transform="translate(-31.75 0.25)" fill="#b1b6be" stroke="#b1b6be" stroke-width="0.5"/>
</svg>
