<svg xmlns="http://www.w3.org/2000/svg" width="21.012" height="23.907" viewBox="0 0 21.012 23.907">
  <defs>
    <style>
      .cls-1 {
        fill: #212121;
      }
    </style>
  </defs>
  <g id="headphones_3_" data-name="headphones (3)" transform="translate(-31)">
    <g id="Group_167" data-name="Group 167" transform="translate(31)">
      <path id="Path_76" data-name="Path 76" class="cls-1" d="M41.506,0A10.518,10.518,0,0,0,31,10.506v5.7a2.1,2.1,0,0,0,2.1,2.1h.821A2.1,2.1,0,0,0,38,17.6v-5.7a2.1,2.1,0,0,0-4.082-.7H33.1a2.091,2.091,0,0,0-.7.12v-.821a9.105,9.105,0,1,1,18.21,0v.821a2.091,2.091,0,0,0-.7-.12H49.09a2.1,2.1,0,0,0-4.082.7v5.7a2.1,2.1,0,0,0,2.711,2.011A2.1,2.1,0,0,1,45.708,21.1H43.486a2.1,2.1,0,1,0,0,1.4h2.222a3.506,3.506,0,0,0,3.5-3.5v-.7h.7a2.1,2.1,0,0,0,2.1-2.1v-5.7A10.518,10.518,0,0,0,41.506,0ZM35.2,11.907a.7.7,0,1,1,1.4,0v5.7a.7.7,0,1,1-1.4,0Zm-2.1.7h.7v4.3h-.7a.7.7,0,0,1-.7-.7V13.307A.7.7,0,0,1,33.1,12.607Zm8.4,9.9a.7.7,0,1,1,.7-.7A.7.7,0,0,1,41.506,22.506Zm6.3-4.9a.7.7,0,0,1-1.4,0v-5.7a.7.7,0,0,1,1.4,0Zm2.8-1.4a.7.7,0,0,1-.7.7h-.7v-4.3h.7a.7.7,0,0,1,.7.7Z" transform="translate(-31)"/>
    </g>
  </g>
</svg>
