<svg xmlns="http://www.w3.org/2000/svg" width="55.479" height="52.742" viewBox="0 0 55.479 52.742">
    <g id="business-and-finance" transform="translate(0 0)">
    <path id="Path_102" class="cls-1" data-name="Path 102"
        d="M55.378,124.931a4.723,4.723,0,0,0-5.679-3.643l-5.783,1.324v-2.364a22.842,22.842,0,0,0,3.226-3.823,22.409,22.409,0,0,0,3.168-7.46,22.858,22.858,0,0,0,.044-9.7,1.084,1.084,0,0,0-2.119.454,20.665,20.665,0,0,1-.039,8.776,20.251,20.251,0,0,1-2.863,6.741,19.29,19.29,0,0,1-1.416,1.869V105.091a1.083,1.083,0,0,0-1.084-1.084H34.261V92.436a1.084,1.084,0,0,0-1.08-1.084l-9.655-.033h0A1.084,1.084,0,0,0,22.44,92.4v6.019H13.867a1.084,1.084,0,0,0-1.084,1.084v10.73H10.369v-1.472a1.083,1.083,0,0,0-1.084-1.083H8.174a20.508,20.508,0,0,1,.885-10.627c.2-.557.431-1.112.681-1.65a1.083,1.083,0,1,0-1.964-.915c-.277.6-.531,1.21-.754,1.826a22.643,22.643,0,0,0-1.046,11.366H1.083A1.083,1.083,0,0,0,0,108.766v19.046A1.083,1.083,0,0,0,1.083,128.9h8.2a1.083,1.083,0,0,0,1.084-1.084v-1.03h4.076l16.511,6.476a13.042,13.042,0,0,0,8.019.5l12.941-3.289a4.714,4.714,0,0,0,3.461-5.539ZM41.75,106.175v16.933l-2.9.663c-.312.071-.626.127-.943.171a11,11,0,0,1-3.633-.105l-.015,0v-1.643a5.018,5.018,0,0,0,.667-4.222,4.866,4.866,0,0,0-.51-1.136q-.074-.121-.155-.236l0,0V106.174H41.75ZM24.607,93.491l7.488.025v21.356l-4.185-1.732-3.3-1.368Zm-9.656,7.1h7.488v10.285l-1.344-.556a1.082,1.082,0,0,0-.414-.083H14.95ZM8.2,126.728H2.167V109.849H8.2Zm43.181,1.641-12.941,3.289a10.89,10.89,0,0,1-6.694-.419l-16.7-6.551a1.082,1.082,0,0,0-.4-.074H10.369V112.4h10.1l7.011,2.9,3.836,1.588a2.71,2.71,0,0,1,1.451,3.511,3.1,3.1,0,0,1-.434.761,2.793,2.793,0,0,1-2.84.98l-.025-.006c-.063-.016-.125-.034-.187-.054l-7.291-2.8-.091-.035a1.084,1.084,0,0,0-.778,2.023s4.111,1.58,7.245,2.789c.063.025.126.047.189.069l2.407.926a19.9,19.9,0,0,0,2.209.752,13.147,13.147,0,0,0,6.17.077l3.738-.855.011,0,7.1-1.625a2.556,2.556,0,0,1,1.2,4.969Zm0,0"
        transform="translate(0 -81.425)" />
    <path id="Path_103" class="cls-1" data-name="Path 103"
        d="M118.96,7.707a1.079,1.079,0,0,0,.726-.279,20.362,20.362,0,0,1,15.045-5.217A20.323,20.323,0,0,1,140.639,3.5a1.083,1.083,0,1,0,.771-2.025A22.485,22.485,0,0,0,134.874.048a22.53,22.53,0,0,0-16.639,5.771,1.084,1.084,0,0,0,.726,1.888Zm0,0"
        transform="translate(-105.104 0)" />
    <path id="Path_104" class="cls-1" data-name="Path 104"
        d="M351.819,42.4a1.085,1.085,0,0,0,1.529-.107l8.915-10.262a1.083,1.083,0,1,0-1.635-1.421l-8.915,10.262A1.083,1.083,0,0,0,351.819,42.4Zm0,0"
        transform="translate(-313.365 -26.963)" />
    <path id="Path_105" class="cls-1" data-name="Path 105"
        d="M406.232,99.738a2.72,2.72,0,1,0,2.72,2.72A2.723,2.723,0,0,0,406.232,99.738Zm0,3.274a.553.553,0,1,1,.553-.553A.554.554,0,0,1,406.232,103.012Zm0,0"
        transform="translate(-359.789 -88.931)" />
    <path id="Path_106" class="cls-1" data-name="Path 106"
        d="M350.7,32.706a2.72,2.72,0,1,0-2.72-2.72A2.723,2.723,0,0,0,350.7,32.706Zm0-3.274a.553.553,0,1,1-.553.554A.554.554,0,0,1,350.7,29.432Zm0,0"
        transform="translate(-310.275 -24.311)" />
    <path id="Path_107" class="cls-1" data-name="Path 107"
        d="M91.662,82.321a1.083,1.083,0,1,0,.4-1.316,1.092,1.092,0,0,0-.4,1.316Zm0,0"
        transform="translate(-81.658 -72.068)" />
    </g>
</svg>