<svg xmlns="http://www.w3.org/2000/svg" class="percent-tag-icon" width="71.095" height="71.095"
     viewBox="0 0 71.095 71.095">
    <g id="tag_1_" data-name="tag (1)" transform="translate(35.551 -0.004) rotate(45)">
    <g id="Group_215" data-name="Group 215" transform="translate(0 0.006)">
        <g id="Group_214" data-name="Group 214" transform="translate(0 0)">
        <path id="Path_108" class="cls-1" data-name="Path 108"
            d="M50.272,3.43A3.406,3.406,0,0,0,46.848.006a3.432,3.432,0,0,0-2.426,1.013c-.275.275-.775.869-1.049,1.2a.814.814,0,1,0,1.253,1.04c.428-.516.783-.922.947-1.087a1.813,1.813,0,0,1,1.281-.536h.008a1.776,1.776,0,0,1,1.781,1.788A1.813,1.813,0,0,1,48.108,4.7a29.1,29.1,0,0,1-2.878,2.2,5.16,5.16,0,0,0-4.455-2.563H28.848A5.988,5.988,0,0,0,24.587,6.11L.748,29.95a2.552,2.552,0,0,0,0,3.609L16.719,49.531a2.555,2.555,0,0,0,3.609,0L44.168,25.691a5.988,5.988,0,0,0,1.765-4.262V9.5a5.157,5.157,0,0,0-.1-1.028,31.17,31.17,0,0,0,3.43-2.619A3.431,3.431,0,0,0,50.272,3.43Zm-5.968,18a4.369,4.369,0,0,1-1.288,3.11L19.177,48.379a.924.924,0,0,1-1.305,0L1.9,32.407a.923.923,0,0,1,0-1.305L25.739,7.262a4.37,4.37,0,0,1,3.11-1.288H40.775a3.532,3.532,0,0,1,3.1,1.852c-.962.637-2.039,1.314-3.182,1.981-.036-.039-.072-.078-.11-.116a3.425,3.425,0,1,0,.887,1.547c.994-.579,1.948-1.17,2.829-1.742,0,0,0,.005,0,.008V21.43Zm-6.863-8.954a.814.814,0,0,0,1.094.362q.716-.36,1.424-.746a1.792,1.792,0,1,1-.756-1.442q-.691.376-1.4.733A.814.814,0,0,0,37.441,12.476Z"
            transform="translate(0 -0.006)" />
        </g>
    </g>
    <g id="Group_217" data-name="Group 217" transform="translate(23.454 16.595)">
        <g id="Group_216" data-name="Group 216">
        <path id="Path_109" class="cls-1" data-name="Path 109"
            d="M239.681,168.962a.814.814,0,0,0-.814.814v17.2a.814.814,0,1,0,1.629,0v-17.2A.814.814,0,0,0,239.681,168.962Z"
            transform="translate(-238.867 -168.962)" />
        </g>
    </g>
    <g id="Group_219" data-name="Group 219" transform="translate(14.706 22.591)">
        <g id="Group_218" data-name="Group 218">
        <path id="Path_110" class="cls-1" data-name="Path 110"
            d="M155.613,231.024a3.42,3.42,0,1,0,1,2.419A3.424,3.424,0,0,0,155.613,231.024Zm-1.152,3.686a1.792,1.792,0,1,1,.525-1.267A1.794,1.794,0,0,1,154.461,234.71Z"
            transform="translate(-149.775 -230.024)" />
        </g>
    </g>
    <g id="Group_221" data-name="Group 221" transform="translate(26.992 22.591)">
        <g id="Group_220" data-name="Group 220">
        <path id="Path_111" class="cls-1" data-name="Path 111"
            d="M280.742,231.024a3.419,3.419,0,1,0,0,4.838A3.424,3.424,0,0,0,280.742,231.024Zm-1.152,3.686a1.791,1.791,0,1,1,0-2.534A1.794,1.794,0,0,1,279.59,234.71Z"
            transform="translate(-274.904 -230.024)" />
        </g>
    </g>
    </g>
</svg>