<svg id="smartphone_1_" data-name="smartphone (1)" xmlns="http://www.w3.org/2000/svg" width="25.803" height="43.005" viewBox="0 0 25.803 43.005">
  <g id="Group_13" data-name="Group 13" transform="translate(11.468 3.584)">
    <g id="Group_12" data-name="Group 12">
      <path id="Path_11" data-name="Path 11" d="M244.309,42.667h-4.3a1.075,1.075,0,0,0,0,2.15h4.3a1.075,1.075,0,1,0,0-2.15Z" transform="translate(-238.933 -42.667)" fill="#8f96a2"/>
    </g>
  </g>
  <g id="Group_15" data-name="Group 15">
    <g id="Group_14" data-name="Group 14">
      <path id="Path_12" data-name="Path 12" d="M123.9,0H106.7a4.306,4.306,0,0,0-4.3,4.3V38.7a4.306,4.306,0,0,0,4.3,4.3h17.2a4.306,4.306,0,0,0,4.3-4.3V4.3A4.306,4.306,0,0,0,123.9,0Zm2.15,38.7a2.15,2.15,0,0,1-2.15,2.15H106.7a2.15,2.15,0,0,1-2.15-2.15V4.3a2.15,2.15,0,0,1,2.15-2.15h17.2a2.15,2.15,0,0,1,2.15,2.15Z" transform="translate(-102.4)" fill="#8f96a2"/>
    </g>
  </g>
  <g id="Group_17" data-name="Group 17" transform="translate(10.751 35.121)">
    <g id="Group_16" data-name="Group 16">
      <circle id="Ellipse_1" data-name="Ellipse 1" cx="2.15" cy="2.15" r="2.15" fill="#8f96a2"/>
    </g>
  </g>
  <g id="Group_19" data-name="Group 19" transform="translate(7.884 3.584)">
    <g id="Group_18" data-name="Group 18">
      <circle id="Ellipse_2" data-name="Ellipse 2" cx="1.075" cy="1.075" r="1.075" fill="#8f96a2"/>
    </g>
  </g>
</svg>
