<svg xmlns="http://www.w3.org/2000/svg" width="38.499" height="35.336" viewBox="0 0 38.499 35.336">
  <g id="chat" transform="translate(0 -2.465)">
    <path id="Path_642" data-name="Path 642" d="M9.642,24.748h8.341a.642.642,0,0,0,0-1.283H9.642a.642.642,0,1,0,0,1.283Z" transform="translate(-3.225 -7.525)"/>
    <path id="Path_643" data-name="Path 643" d="M26.325,29.465H9.642a.642.642,0,1,0,0,1.283H26.325a.642.642,0,0,0,0-1.283Z" transform="translate(-3.225 -9.675)"/>
    <path id="Path_644" data-name="Path 644" d="M26.325,35.465H9.642a.642.642,0,1,0,0,1.283H26.325a.642.642,0,1,0,0-1.283Z" transform="translate(-3.225 -11.825)"/>
    <path id="Path_645" data-name="Path 645" d="M34.7,2.51,12.788,2.465a3.809,3.809,0,0,0-3.8,3.8V9.558L3.8,9.569a3.809,3.809,0,0,0-3.8,3.8V26.939a3.809,3.809,0,0,0,3.8,3.8H7.7V37.16a.642.642,0,0,0,1.116.432l6.227-6.85L25.711,30.7a3.809,3.809,0,0,0,3.8-3.8v-.073l3.375,3.713a.642.642,0,0,0,1.116-.432V23.686h.687a3.809,3.809,0,0,0,3.805-3.8V6.315A3.809,3.809,0,0,0,34.7,2.51ZM28.233,26.893a2.525,2.525,0,0,1-2.524,2.521l-10.953.045a.642.642,0,0,0-.472.21L8.983,35.5V30.1a.641.641,0,0,0-.642-.642H3.8a2.524,2.524,0,0,1-2.522-2.521V13.373a2.525,2.525,0,0,1,2.523-2.522l5.819-.012h0l16.085-.033a2.525,2.525,0,0,1,2.522,2.522V26.893Zm8.983-7.013A2.524,2.524,0,0,1,34.694,22.4H33.366a.641.641,0,0,0-.642.642v5.4l-3.208-3.529V13.328a3.809,3.809,0,0,0-3.806-3.8l-15.443.031V6.269a2.524,2.524,0,0,1,2.52-2.522l21.907.045h0a2.525,2.525,0,0,1,2.522,2.522V19.88Z" transform="translate(0 0)"/>
  </g>
</svg>
