<svg xmlns="http://www.w3.org/2000/svg" width="22.325" height="39.333" viewBox="0 0 22.325 39.333">
  <path id="facebook" d="M14.29,39.333h-6.3a1.91,1.91,0,0,1-1.908-1.908V23.218H2.408A1.91,1.91,0,0,1,.5,21.31V15.222a1.91,1.91,0,0,1,1.908-1.908H6.083V10.265A10.38,10.38,0,0,1,8.828,2.828,9.886,9.886,0,0,1,16.116,0l4.8.008a1.911,1.911,0,0,1,1.9,1.908V7.568a1.91,1.91,0,0,1-1.907,1.908H17.683c-.986,0-1.238.2-1.291.258-.089.1-.194.385-.194,1.169v2.409h4.476a1.939,1.939,0,0,1,.944.24,1.915,1.915,0,0,1,.982,1.669l0,6.088a1.91,1.91,0,0,1-1.908,1.907H16.2V37.425a1.91,1.91,0,0,1-1.908,1.908Zm-5.9-2.306h5.5V22.185a1.275,1.275,0,0,1,1.274-1.274h5.126l0-5.292H15.166a1.275,1.275,0,0,1-1.274-1.274V10.9a3.927,3.927,0,0,1,.772-2.7,3.908,3.908,0,0,1,3.019-1.038h2.836V2.313l-4.4-.007c-4.765,0-7.726,3.05-7.726,7.96v4.081A1.275,1.275,0,0,1,7.115,15.62H2.806v5.292H7.115a1.275,1.275,0,0,1,1.274,1.274ZM20.916,2.313h0Zm0,0" transform="translate(-0.5 0)"/>
</svg>
