<svg id="instagram_14_" data-name="instagram (14)" xmlns="http://www.w3.org/2000/svg" width="39.333" height="39.333" viewBox="0 0 39.333 39.333">
  <path id="Path_89150" data-name="Path 89150" d="M28.685,0H10.646A10.659,10.659,0,0,0,0,10.647V28.686A10.659,10.659,0,0,0,10.646,39.333H28.686A10.659,10.659,0,0,0,39.332,28.686V10.647A10.659,10.659,0,0,0,28.685,0Zm8.341,28.686a8.351,8.351,0,0,1-8.341,8.341H10.646A8.351,8.351,0,0,1,2.3,28.686V10.647a8.351,8.351,0,0,1,8.341-8.341H28.686a8.351,8.351,0,0,1,8.341,8.341Zm0,0" transform="translate(0.001 0)"/>
  <path id="Path_89151" data-name="Path 89151" d="M126.759,116a10.755,10.755,0,1,0,10.755,10.755A10.767,10.767,0,0,0,126.759,116Zm0,19.2a8.449,8.449,0,1,1,8.449-8.449A8.459,8.459,0,0,1,126.759,135.208Zm0,0" transform="translate(-107.092 -107.092)"/>
  <path id="Path_89152" data-name="Path 89152" d="M361.155,66.285a3.178,3.178,0,1,0,3.178,3.178A3.182,3.182,0,0,0,361.155,66.285Zm0,4.05a.872.872,0,1,1,.872-.872A.873.873,0,0,1,361.155,70.335Zm0,0" transform="translate(-330.476 -61.193)"/>
</svg>
