<svg id="privacy_1_" data-name="privacy (1)" xmlns="http://www.w3.org/2000/svg" width="32.008" height="43.838" viewBox="0 0 32.008 43.838">
  <path id="Path_3" data-name="Path 3" d="M173.2,300.088a1.284,1.284,0,0,0,1.284-1.284v-5.32a1.284,1.284,0,0,0-2.569,0v5.32A1.285,1.285,0,0,0,173.2,300.088Zm0,0" transform="translate(-157.194 -267.181)" fill="#b1b6be"/>
  <path id="Path_4" data-name="Path 4" d="M30.723,14.087H24.645V7.831C24.645,3.513,20.768,0,16,0S7.363,3.513,7.363,7.831v6.256H1.284A1.284,1.284,0,0,0,0,15.372V31.8A12.055,12.055,0,0,0,12.041,43.838h7.925A12.055,12.055,0,0,0,32.008,31.8V15.372a1.285,1.285,0,0,0-1.285-1.284ZM9.932,7.831c0-2.9,2.724-5.262,6.072-5.262s6.072,2.361,6.072,5.262v6.256H9.932ZM29.439,31.8a9.484,9.484,0,0,1-9.473,9.473H12.041A9.484,9.484,0,0,1,2.568,31.8V16.656H29.439Zm0,0" transform="translate(0 0)" fill="#b1b6be"/>
</svg>
