<svg xmlns="http://www.w3.org/2000/svg" width="33.5" height="44.732" viewBox="0 0 33.5 44.732">
  <g id="name" transform="translate(4.582)">
    <path id="Path_716" data-name="Path 716" d="M148.387,182.188a5.094,5.094,0,1,0-5.094-5.094A5.094,5.094,0,0,0,148.387,182.188Zm0-8.207a3.123,3.123,0,1,1-3.123,3.123A3.123,3.123,0,0,1,148.387,173.98Zm0,0" transform="translate(-136.219 -158.442)" fill="#b1b6be"/>
    <path id="Path_717" data-name="Path 717" d="M116.491,325.123a7.645,7.645,0,0,0-5.537,2.315,8.172,8.172,0,0,0-2.286,5.784.988.988,0,0,0,.985.985h13.676a.988.988,0,0,0,.985-.985,8.172,8.172,0,0,0-2.286-5.784,7.645,7.645,0,0,0-5.537-2.315Zm-5.784,7.114a6.026,6.026,0,0,1,1.655-3.419,5.8,5.8,0,0,1,8.256,0,6.058,6.058,0,0,1,1.655,3.419Zm0,0" transform="translate(-104.323 -299.495)" fill="#b1b6be"/>
    <path id="Path_718" data-name="Path 718" d="M23.992,0H.344A4.928,4.928,0,0,0-4.582,4.926V39.806A4.928,4.928,0,0,0,.344,44.732H23.992a4.929,4.929,0,0,0,4.926-4.926V4.926A4.929,4.929,0,0,0,23.992,0Zm2.956,39.806a2.965,2.965,0,0,1-2.956,2.956H.344a2.965,2.965,0,0,1-2.956-2.956V4.926A2.965,2.965,0,0,1,.344,1.971H23.992a2.965,2.965,0,0,1,2.956,2.956Zm0,0" fill="#b1b6be"/>
    <path id="Path_719" data-name="Path 719" d="M144.278,60.846h7.882a.985.985,0,0,0,0-1.971h-7.882a.985.985,0,0,0,0,1.971Zm0,0" transform="translate(-136.219 -54.234)" fill="#b1b6be"/>
  </g>
</svg>
