<svg id="link_2_" data-name="link (2)" xmlns="http://www.w3.org/2000/svg" width="15.618" height="15.618" viewBox="0 0 15.618 15.618">
  <g id="Group_9893" data-name="Group 9893" transform="translate(0 0)">
    <g id="Group_9892" data-name="Group 9892">
      <path id="Path_720" data-name="Path 720" d="M5.481,183.461l-1.84,1.84a1.952,1.952,0,1,1-2.761-2.76l3.681-3.681a1.952,1.952,0,0,1,2.76,0,.651.651,0,0,0,.92-.92,3.253,3.253,0,0,0-4.6,0l-3.681,3.681a3.254,3.254,0,0,0,4.6,4.6l1.84-1.84a.651.651,0,1,0-.92-.92Z" transform="translate(0.993 -171.557)" fill="#e13535"/>
      <path id="Path_721" data-name="Path 721" d="M198.776-.048a3.254,3.254,0,0,0-4.6,0L191.967,2.16a.651.651,0,1,0,.92.92L195.095.873a1.952,1.952,0,1,1,2.761,2.76l-4.049,4.049a1.952,1.952,0,0,1-2.76,0,.651.651,0,0,0-.92.92,3.253,3.253,0,0,0,4.6,0l4.049-4.049A3.253,3.253,0,0,0,198.776-.048Z" transform="translate(-184.112 1)" fill="#e13535"/>
    </g>
  </g>
</svg>
