<svg id="play_1_" data-name="play (1)" xmlns="http://www.w3.org/2000/svg" width="28.869" height="33.423" viewBox="0 0 28.869 33.423">
  <g id="Group_9921" data-name="Group 9921">
    <path id="Path_743" data-name="Path 743" d="M61.581,12.855,41.84.686a4.564,4.564,0,0,0-6.957,3.887V28.8a4.612,4.612,0,0,0,4.555,4.624h.02a4.581,4.581,0,0,0,2.366-.712,1.3,1.3,0,1,0-1.358-2.225,2,2,0,0,1-1.015.331A2.025,2.025,0,0,1,37.49,28.8V4.573a1.958,1.958,0,0,1,2.983-1.668L60.214,15.074a1.958,1.958,0,0,1-.009,3.34L45.932,27.152a1.3,1.3,0,1,0,1.361,2.223l14.271-8.738a4.564,4.564,0,0,0,.016-7.783Z" transform="translate(-34.883 0)" fill="#212121"/>
  </g>
</svg>
