<svg xmlns="http://www.w3.org/2000/svg" width="22.81" height="18.622" viewBox="0 0 22.81 18.622">
  <defs>
    <style>
      .cls-1 {
        fill: #fff;
      }
    </style>
  </defs>
  <path id="speedometer" class="cls-1" d="M22.81,11.4a11.3,11.3,0,0,1-2.3,6.869.891.891,0,0,1-1.421-1.075A9.621,9.621,0,1,0,1.782,11.4a9.529,9.529,0,0,0,1.942,5.794A.891.891,0,0,1,2.3,18.269,11.4,11.4,0,0,1,11.405,0,11.4,11.4,0,0,1,22.81,11.4ZM17.051,6.034a.891.891,0,0,1,0,1.26l-2.9,2.9a3.118,3.118,0,1,1-1.26-1.26l2.9-2.9a.891.891,0,0,1,1.26,0ZM12.74,11.679a1.334,1.334,0,1,0-1.334,1.334A1.336,1.336,0,0,0,12.74,11.679Zm0,0" transform="translate(0 0)"/>
</svg>
