<svg xmlns="http://www.w3.org/2000/svg" width="39.333" height="32.474" viewBox="0 0 39.333 32.474">
  <path id="twitter" d="M14.966,32.474C8.4,32.474,3.213,31.327.73,29.327l-.048-.039-.044-.044a2.019,2.019,0,0,1-.53-2.123l.023-.063a2.056,2.056,0,0,1,1.876-1.291A16.95,16.95,0,0,0,6.49,25.15a8.507,8.507,0,0,1-4.483-5.18,1.836,1.836,0,0,1,.641-2.141,1.874,1.874,0,0,1,.559-.286A12.405,12.405,0,0,1,.663,12.984l-.015-.051-.011-.052a1.912,1.912,0,0,1,.886-2.052,1.9,1.9,0,0,1,.907-.256A9.591,9.591,0,0,1,1.7,8.363,9.249,9.249,0,0,1,2.689,2.2l.244-.488a1.36,1.36,0,0,1,2.179-.354l.444.445C9.067,5.484,12.212,7.231,17.65,8.426a9.634,9.634,0,0,1,2.6-5.554A9.125,9.125,0,0,1,26.765,0h.016a13.051,13.051,0,0,1,5.386,1.753c1.159-.379,2.555-.967,4-1.587a1.829,1.829,0,0,1,2.047.36,1.8,1.8,0,0,1,.39,1.975q-.158.44-.358.862a1.832,1.832,0,0,1,.533.368,1.978,1.978,0,0,1,.492,1.849l-.018.063A7.546,7.546,0,0,1,36.225,9.8c-.236,12.544-9.682,22.669-21.259,22.669ZM2.942,28.043c2.339,1.323,6.8,2.124,12.024,2.124a18.011,18.011,0,0,0,13.352-6.075A21.764,21.764,0,0,0,33.923,9.324V9.261a1.359,1.359,0,0,1,.725-1.2,4.9,4.9,0,0,0,2.12-2.345,1.36,1.36,0,0,1-1.31-2.142,7.488,7.488,0,0,0,.514-.814c-1.251.525-2.439,1-3.471,1.31a1.475,1.475,0,0,1-1.135-.122,11.238,11.238,0,0,0-4.578-1.638,7.172,7.172,0,0,0-6.9,7.268,1.361,1.361,0,0,1-1.624,1.335C12,9.675,8.281,7.823,4.418,3.941a6.81,6.81,0,0,0-.449,3.982,8.416,8.416,0,0,0,2,3.873,1.36,1.36,0,0,1-1.373,2.211,6.23,6.23,0,0,1-1.268-.487,11.491,11.491,0,0,0,3.94,4.569,1.36,1.36,0,0,1-.87,2.478,6.115,6.115,0,0,1-1.805-.39,6.2,6.2,0,0,0,4.95,3.507,1.36,1.36,0,0,1,.4,2.543,16.344,16.344,0,0,1-7,1.815Zm0,0" transform="translate(0 0)"/>
</svg>
